<svg id="svg" version="1.1" width="400" height="400" viewBox="0 0 400 400" xmlns="http://www.w3.org/2000/svg" xmlns:xlink="http://www.w3.org/1999/xlink" ><g id="svgg"><path id="path0" d="M192.600 94.781 C 190.526 95.638,189.823 97.412,188.389 105.400 C 188.191 106.500,187.836 108.120,187.600 109.000 C 187.364 109.880,187.009 111.500,186.811 112.600 C 185.961 117.327,185.091 121.457,184.789 122.200 C 184.610 122.640,184.344 123.720,184.197 124.600 C 184.050 125.480,183.759 127.010,183.549 128.000 C 183.339 128.990,183.001 130.700,182.798 131.800 C 182.596 132.900,182.239 134.520,182.006 135.400 C 181.772 136.280,181.409 137.900,181.198 139.000 C 177.137 160.188,177.078 160.304,168.600 163.814 C 167.940 164.087,166.950 164.432,166.400 164.581 C 165.850 164.729,165.040 165.012,164.600 165.209 C 164.160 165.406,162.270 166.124,160.400 166.805 C 158.530 167.486,156.687 168.214,156.305 168.422 C 155.923 168.630,155.336 168.800,155.000 168.800 C 154.664 168.800,154.077 168.959,153.695 169.153 C 152.745 169.636,151.429 170.165,148.600 171.200 C 147.280 171.683,145.840 172.223,145.400 172.400 C 144.960 172.577,143.610 173.081,142.400 173.521 C 141.190 173.960,138.400 174.990,136.200 175.810 C 134.000 176.630,131.210 177.662,130.000 178.104 C 128.790 178.546,127.440 179.045,127.000 179.215 C 126.560 179.384,125.210 179.882,124.000 180.321 C 114.929 183.617,114.128 184.102,113.732 186.544 C 113.283 189.308,114.379 190.596,119.700 193.564 C 123.331 195.588,124.263 196.139,125.262 196.847 C 125.846 197.261,126.434 197.600,126.569 197.600 C 126.704 197.600,128.000 198.320,129.448 199.200 C 130.897 200.080,132.145 200.800,132.222 200.800 C 132.298 200.800,134.485 202.033,137.081 203.541 C 141.725 206.238,151.355 211.801,153.900 213.257 C 157.155 215.118,158.098 215.655,159.500 216.447 C 160.325 216.913,161.450 217.597,162.000 217.968 C 162.550 218.339,163.888 219.083,164.973 219.621 C 171.539 222.880,171.772 223.964,172.775 255.800 C 173.132 267.152,173.264 269.863,174.065 282.400 C 174.559 290.134,174.778 290.735,177.425 291.608 C 179.154 292.179,181.004 291.409,183.513 289.075 C 186.704 286.106,191.360 281.880,192.161 281.223 C 192.580 280.881,194.110 279.499,195.561 278.153 C 197.012 276.808,199.100 274.936,200.200 273.994 C 201.300 273.051,203.910 270.706,206.000 268.781 C 218.703 257.082,225.900 250.855,227.880 249.850 C 229.297 249.131,234.510 248.945,236.081 249.558 C 236.587 249.755,237.720 250.103,238.600 250.330 C 239.480 250.557,241.550 251.123,243.200 251.586 C 244.850 252.050,246.830 252.596,247.600 252.800 C 249.251 253.238,254.017 254.595,257.400 255.592 C 258.720 255.981,261.960 256.874,264.600 257.576 C 267.240 258.279,270.930 259.302,272.800 259.851 C 274.670 260.399,276.830 261.011,277.600 261.210 C 279.504 261.701,284.222 263.029,287.511 264.000 C 296.337 266.604,298.677 263.516,294.658 254.569 C 292.669 250.142,291.533 247.595,290.213 244.600 C 288.841 241.487,287.827 239.218,286.906 237.200 C 286.354 235.990,285.588 234.280,285.204 233.400 C 284.820 232.520,284.104 230.900,283.612 229.800 C 283.121 228.700,282.377 227.035,281.959 226.100 C 281.542 225.165,280.853 223.635,280.429 222.700 C 271.540 203.102,270.989 201.318,272.616 197.424 C 273.128 196.198,287.924 173.634,302.858 151.304 C 309.280 141.703,306.653 137.956,295.200 140.384 C 293.624 140.718,288.974 141.214,276.000 142.431 C 272.423 142.767,265.148 143.503,254.800 144.577 C 251.390 144.931,247.382 145.396,245.893 145.610 C 239.644 146.510,236.353 145.016,232.208 139.400 C 231.558 138.520,230.481 137.150,229.813 136.356 C 229.146 135.561,227.774 133.851,226.765 132.556 C 224.621 129.802,215.706 118.568,214.738 117.400 C 214.374 116.960,212.304 114.350,210.139 111.600 C 207.974 108.850,205.985 106.330,205.720 106.000 C 205.454 105.670,204.320 104.230,203.200 102.800 C 202.080 101.370,200.944 99.930,200.676 99.600 C 200.408 99.270,199.561 98.216,198.794 97.259 C 196.722 94.670,194.764 93.887,192.600 94.781 M106.298 251.035 C 106.046 251.287,103.993 251.855,101.400 252.391 C 98.864 252.915,94.675 254.022,93.800 254.400 C 93.360 254.590,92.460 254.833,91.800 254.940 C 91.140 255.047,89.880 255.341,89.000 255.594 C 88.120 255.846,86.770 256.205,86.000 256.391 C 83.611 256.966,75.493 259.201,73.600 259.804 C 72.610 260.119,70.450 260.756,68.800 261.219 C 67.150 261.682,64.990 262.305,64.000 262.603 C 63.010 262.902,60.850 263.545,59.200 264.033 C 57.550 264.521,55.840 265.052,55.400 265.212 C 54.960 265.373,52.170 266.268,49.200 267.201 C 42.809 269.209,41.662 269.580,40.600 269.988 C 40.160 270.157,38.540 270.688,37.000 271.168 C 35.460 271.648,33.840 272.185,33.400 272.362 C 32.045 272.905,28.663 274.067,27.400 274.423 C 25.749 274.889,15.192 278.645,8.400 281.182 C 6.530 281.881,4.190 282.731,3.200 283.071 C -0.304 284.275,-0.000 283.124,-0.000 295.214 C -0.000 301.146,0.071 306.000,0.159 306.000 C 0.246 306.000,6.010 303.210,12.968 299.800 C 19.926 296.390,25.694 293.600,25.785 293.600 C 25.877 293.600,28.438 292.416,31.476 290.969 C 39.553 287.123,41.532 286.194,44.200 284.994 C 45.520 284.401,47.680 283.413,49.000 282.800 C 52.632 281.112,55.859 279.656,59.400 278.107 C 61.160 277.337,63.500 276.304,64.600 275.812 C 65.700 275.321,67.770 274.415,69.200 273.799 C 70.630 273.183,72.700 272.273,73.800 271.775 C 75.601 270.961,82.739 267.881,85.800 266.598 C 86.460 266.321,87.630 265.813,88.400 265.469 C 89.170 265.124,91.420 264.183,93.400 263.378 C 95.380 262.572,97.720 261.597,98.600 261.210 C 99.480 260.823,102.313 259.648,104.896 258.600 C 110.840 256.188,110.909 256.135,110.909 254.008 C 110.909 251.660,107.726 249.607,106.298 251.035 " stroke="none" fill="#fafbfb" fill-rule="evenodd"></path><path id="path1" d="M0.000 142.214 C 0.000 277.530,0.034 284.410,0.700 284.059 C 1.085 283.856,2.210 283.412,3.200 283.071 C 4.190 282.731,6.530 281.881,8.400 281.182 C 15.192 278.645,25.749 274.889,27.400 274.423 C 28.663 274.067,32.045 272.905,33.400 272.362 C 33.840 272.185,35.460 271.648,37.000 271.168 C 38.540 270.688,40.160 270.157,40.600 269.988 C 41.662 269.580,42.809 269.209,49.200 267.201 C 52.170 266.268,54.960 265.373,55.400 265.212 C 55.840 265.052,57.550 264.521,59.200 264.033 C 60.850 263.545,63.010 262.902,64.000 262.603 C 64.990 262.305,67.150 261.682,68.800 261.219 C 70.450 260.756,72.610 260.119,73.600 259.804 C 75.493 259.201,83.611 256.966,86.000 256.391 C 86.770 256.205,88.120 255.846,89.000 255.594 C 89.880 255.341,91.140 255.047,91.800 254.940 C 92.460 254.833,93.360 254.590,93.800 254.400 C 94.675 254.022,98.864 252.915,101.400 252.391 C 102.280 252.209,103.720 251.848,104.600 251.589 C 109.066 250.274,110.909 250.981,110.909 254.008 C 110.909 256.135,110.840 256.188,104.896 258.600 C 102.313 259.648,99.480 260.823,98.600 261.210 C 97.720 261.597,95.380 262.572,93.400 263.378 C 91.420 264.183,89.215 265.103,88.500 265.421 C 87.785 265.739,86.615 266.248,85.900 266.551 C 81.673 268.341,75.522 270.997,73.800 271.775 C 72.700 272.273,70.630 273.183,69.200 273.799 C 67.770 274.415,65.700 275.321,64.600 275.812 C 63.500 276.304,61.160 277.337,59.400 278.107 C 55.859 279.656,52.632 281.112,49.000 282.800 C 47.680 283.413,45.520 284.401,44.200 284.994 C 42.880 285.588,40.720 286.583,39.400 287.207 C 38.080 287.830,35.650 288.971,34.000 289.743 C 25.664 293.640,18.889 296.889,9.900 301.300 L 0.000 306.158 0.000 353.079 L 0.000 400.000 200.000 400.000 L 400.000 400.000 400.000 200.000 L 400.000 0.000 200.000 0.000 L 0.000 0.000 0.000 142.214 M196.320 94.959 C 196.914 95.266,198.028 96.301,198.794 97.259 C 199.561 98.216,200.408 99.270,200.676 99.600 C 200.944 99.930,202.080 101.370,203.200 102.800 C 204.320 104.230,205.454 105.670,205.720 106.000 C 205.985 106.330,207.974 108.850,210.139 111.600 C 212.304 114.350,214.374 116.960,214.738 117.400 C 215.706 118.568,224.621 129.802,226.765 132.556 C 227.774 133.851,229.146 135.561,229.813 136.356 C 230.481 137.150,231.558 138.520,232.208 139.400 C 236.353 145.016,239.644 146.510,245.893 145.610 C 247.382 145.396,251.390 144.931,254.800 144.577 C 265.148 143.503,272.423 142.767,276.000 142.431 C 288.974 141.214,293.624 140.718,295.200 140.384 C 306.653 137.956,309.280 141.703,302.858 151.304 C 287.924 173.634,273.128 196.198,272.616 197.424 C 270.989 201.318,271.540 203.102,280.429 222.700 C 280.853 223.635,281.542 225.165,281.959 226.100 C 282.377 227.035,283.121 228.700,283.612 229.800 C 284.104 230.900,284.820 232.520,285.204 233.400 C 285.588 234.280,286.354 235.990,286.906 237.200 C 287.827 239.218,288.841 241.487,290.213 244.600 C 291.533 247.595,292.669 250.142,294.658 254.569 C 298.677 263.516,296.337 266.604,287.511 264.000 C 284.222 263.029,279.504 261.701,277.600 261.210 C 276.830 261.011,274.670 260.399,272.800 259.851 C 270.930 259.302,267.240 258.279,264.600 257.576 C 261.960 256.874,258.720 255.981,257.400 255.592 C 254.017 254.595,249.251 253.238,247.600 252.800 C 246.830 252.596,244.850 252.050,243.200 251.586 C 241.550 251.123,239.480 250.557,238.600 250.330 C 237.720 250.103,236.587 249.755,236.081 249.558 C 234.510 248.945,229.297 249.131,227.880 249.850 C 225.900 250.855,218.703 257.082,206.000 268.781 C 203.910 270.706,201.300 273.051,200.200 273.994 C 199.100 274.936,197.012 276.808,195.561 278.153 C 194.110 279.499,192.580 280.881,192.161 281.223 C 191.360 281.880,186.704 286.106,183.513 289.075 C 181.004 291.409,179.154 292.179,177.425 291.608 C 174.778 290.735,174.559 290.134,174.065 282.400 C 173.264 269.863,173.132 267.152,172.775 255.800 C 171.772 223.964,171.539 222.880,164.973 219.621 C 163.888 219.083,162.550 218.339,162.000 217.968 C 161.450 217.597,160.325 216.913,159.500 216.447 C 158.098 215.655,157.155 215.118,153.900 213.257 C 151.355 211.801,141.725 206.238,137.081 203.541 C 134.485 202.033,132.298 200.800,132.222 200.800 C 132.145 200.800,130.897 200.080,129.448 199.200 C 128.000 198.320,126.704 197.600,126.569 197.600 C 126.434 197.600,125.846 197.261,125.262 196.847 C 124.263 196.139,123.331 195.588,119.700 193.564 C 114.379 190.596,113.283 189.308,113.732 186.544 C 114.128 184.102,114.929 183.617,124.000 180.321 C 125.210 179.882,126.560 179.384,127.000 179.215 C 127.440 179.045,128.790 178.546,130.000 178.104 C 131.210 177.662,134.000 176.630,136.200 175.810 C 138.400 174.990,141.190 173.960,142.400 173.521 C 143.610 173.081,144.960 172.577,145.400 172.400 C 145.840 172.223,147.280 171.683,148.600 171.200 C 151.429 170.165,152.745 169.636,153.695 169.153 C 154.077 168.959,154.664 168.800,155.000 168.800 C 155.336 168.800,155.923 168.630,156.305 168.422 C 156.687 168.214,158.530 167.486,160.400 166.805 C 162.270 166.124,164.160 165.406,164.600 165.209 C 165.040 165.012,165.850 164.729,166.400 164.581 C 166.950 164.432,167.940 164.087,168.600 163.814 C 175.849 160.813,176.895 159.582,178.465 152.200 C 179.704 146.375,180.787 141.143,181.198 139.000 C 181.409 137.900,181.772 136.280,182.006 135.400 C 182.239 134.520,182.596 132.900,182.798 131.800 C 183.001 130.700,183.339 128.990,183.549 128.000 C 183.759 127.010,184.050 125.480,184.197 124.600 C 184.344 123.720,184.610 122.640,184.789 122.200 C 185.091 121.457,185.961 117.327,186.811 112.600 C 187.009 111.500,187.364 109.880,187.600 109.000 C 187.836 108.120,188.191 106.500,188.389 105.400 C 190.216 95.220,192.080 92.766,196.320 94.959 " stroke="none" fill="#0454bb" fill-rule="evenodd"></path></g></svg>